<svg xmlns="http://www.w3.org/2000/svg" width="1440" height="760" viewBox="0 0 1440 760" role="img" aria-labelledby="title desc">
  <title id="title">Bambu Lab Dashboard v1.8.4</title>
  <desc id="desc">Schematische Darstellung der Mehrdrucker-Übersicht mit linker Navigation und zwei Druckerkarten.</desc>
  <defs>
    <linearGradient id="bg" x1="0" y1="0" x2="1" y2="1"><stop offset="0" stop-color="#07100c"/><stop offset="1" stop-color="#030605"/></linearGradient>
    <linearGradient id="card" x1="0" y1="0" x2="0" y2="1"><stop offset="0" stop-color="#111a16"/><stop offset="1" stop-color="#09100c"/></linearGradient>
  </defs>
  <rect width="1440" height="760" rx="34" fill="url(#bg)"/>
  <rect x="34" y="34" width="250" height="692" rx="26" fill="#0c1210" stroke="#1d2923"/>
  <rect x="64" y="66" width="48" height="48" rx="14" fill="#102616" stroke="#50d926"/>
  <text x="130" y="89" fill="#f4f7f5" font-family="Arial, sans-serif" font-size="24" font-weight="700">BAMBU LAB</text>
  <text x="130" y="108" fill="#a8b0ac" font-family="Arial, sans-serif" font-size="12">HA CONTROL CENTER</text>
  <g font-family="Arial, sans-serif" font-size="17" font-weight="700">
    <rect x="58" y="154" width="202" height="50" rx="14" fill="#102616" stroke="#50d926"/><text x="84" y="186" fill="#f4f7f5">Übersicht</text>
    <text x="84" y="244" fill="#a8b0ac">Drucker</text><text x="84" y="294" fill="#a8b0ac">Energie</text><text x="84" y="344" fill="#a8b0ac">Wartung</text>
  </g>
  <text x="64" y="418" fill="#718078" font-family="Arial, sans-serif" font-size="11">DRUCKER</text>
  <rect x="58" y="438" width="94" height="42" rx="12" fill="#102016" stroke="#2c6e24"/><text x="88" y="465" fill="#f4f7f5" font-family="Arial" font-size="15" font-weight="700">A2L</text>
  <rect x="164" y="438" width="94" height="42" rx="12" fill="#102016" stroke="#50d926"/><text x="194" y="465" fill="#f4f7f5" font-family="Arial" font-size="15" font-weight="700">X2D</text>
  <text x="64" y="690" fill="#718078" font-family="Arial" font-size="12">v1.8.4</text>

  <text x="330" y="86" fill="#a8b0ac" font-family="Arial" font-size="13" font-weight="700" letter-spacing="2">CONTROL CENTER</text>
  <text x="330" y="124" fill="#f4f7f5" font-family="Arial" font-size="38" font-weight="800">Alle Drucker</text>
  <text x="330" y="150" fill="#a8b0ac" font-family="Arial" font-size="16">2 Drucker erkannt · 1 aktiv</text>

  <g transform="translate(330,188)">
    <rect width="1040" height="235" rx="24" fill="url(#card)" stroke="#1d2923"/>
    <text x="24" y="34" fill="#a8b0ac" font-family="Arial" font-size="12" font-weight="700">A2L</text>
    <text x="24" y="64" fill="#f4f7f5" font-family="Arial" font-size="25" font-weight="800">A2L</text>
    <rect x="882" y="22" width="132" height="34" rx="17" fill="#101713" stroke="#303b35"/><text x="916" y="44" fill="#a8b0ac" font-family="Arial" font-size="12" font-weight="700">OFFLINE</text>
    <rect x="24" y="88" width="145" height="92" rx="16" fill="#07100c" stroke="#1d2923"/>
    <path d="M65 128h60v40H65zM77 116h36v12H77z" fill="none" stroke="#50d926" stroke-width="8"/>
    <text x="202" y="122" fill="#a8b0ac" font-family="Arial" font-size="14">Kein aktiver Druckauftrag</text>
    <rect x="202" y="143" width="790" height="10" rx="5" fill="#17231d"/>
    <g font-family="Arial" font-size="12" fill="#a8b0ac"><text x="202" y="185">RESTZEIT</text><text x="392" y="185">DÜSE</text><text x="582" y="185">BETT</text><text x="772" y="185">AMS</text></g>
    <g font-family="Arial" font-size="17" font-weight="700" fill="#f4f7f5"><text x="202" y="211">–</text><text x="392" y="211">25 °C</text><text x="582" y="211">25 °C</text><text x="772" y="211">–</text></g>
  </g>

  <g transform="translate(330,445)">
    <rect width="1040" height="235" rx="24" fill="url(#card)" stroke="#2c6e24"/>
    <text x="24" y="34" fill="#a8b0ac" font-family="Arial" font-size="12" font-weight="700">X2D</text>
    <text x="24" y="64" fill="#f4f7f5" font-family="Arial" font-size="25" font-weight="800">X2D</text>
    <rect x="895" y="22" width="119" height="34" rx="17" fill="#102616" stroke="#50d926"/><text x="927" y="44" fill="#c7ffbd" font-family="Arial" font-size="12" font-weight="700">DRUCKT</text>
    <rect x="24" y="88" width="145" height="92" rx="16" fill="#07100c" stroke="#1d2923"/>
    <rect x="48" y="106" width="98" height="62" rx="8" fill="#202a26"/><rect x="56" y="114" width="82" height="46" rx="4" fill="#0b0f0d"/>
    <text x="202" y="120" fill="#f4f7f5" font-family="Arial" font-size="34" font-weight="800">42%</text>
    <rect x="202" y="143" width="790" height="10" rx="5" fill="#17231d"/><rect x="202" y="143" width="332" height="10" rx="5" fill="#50d926"/>
    <text x="202" y="176" fill="#a8b0ac" font-family="Arial" font-size="14">Aktueller Druckauftrag</text>
    <g font-family="Arial" font-size="12" fill="#a8b0ac"><text x="202" y="202">RESTZEIT</text><text x="392" y="202">DÜSE</text><text x="582" y="202">BETT</text><text x="772" y="202">AMS</text></g>
    <g font-family="Arial" font-size="17" font-weight="700" fill="#f4f7f5"><text x="202" y="226">38 min</text><text x="392" y="226">220 °C</text><text x="582" y="226">60 °C</text><text x="772" y="226">1</text></g>
  </g>
</svg>
